# xmcd
#
# Track frame offsets: 
#        150
#        15586
#        33135
#        50257
#        68959
#        87410
#        103448
#        121701
#        135930
#        152733
#        168726
#
# Disc length: 2445 seconds
#
# Revision: 0
# Processed by: cddbd v1.5.2PL0 Copyright (c) Steve Scherf et al.
# Submitted via: ExactAudioCopy v0.95b4
#
DISCID=88098b0b
DTITLE=MELANIE MORGAN - BRAND NEW DAY
DYEAR=2007
DGENRE=COUNTRY
TTITLE0=BRAND NEW DAY
TTITLE1=DON'T EVEN THINK ABOUT IT
TTITLE2=CAN'T TRUST THE WEATHERMAN
TTITLE3=PUT YOURSELF IN MY BLUES
TTITLE4=I NEED A MAN
TTITLE5=LIVE THE GOOD LIFE
TTITLE6=DIDN'T THINK YOU'D LET ME GO THIS FAR
TTITLE7=MY MAN
TTITLE8=WHEN MY ROOTS ARE SHOWING
TTITLE9=IF I CAN'T HAVE TOMORROW
TTITLE10=WHY'D YOU HAVE TO LOVE ME LIKE THAT
EXTD=
EXTT0=
EXTT1=
EXTT2=
EXTT3=
EXTT4=
EXTT5=
EXTT6=
EXTT7=
EXTT8=
EXTT9=
EXTT10=
PLAYORDER=
